<svg fill="none" xmlns="http://www.w3.org/2000/svg">
<path d="M6.99995 0.999998C7.2336 0.999541 7.46004 1.08092 7.63995 1.23C7.74121 1.31395 7.82491 1.41705 7.88626 1.5334C7.94761 1.64974 7.98541 1.77705 7.99749 1.90803C8.00956 2.039 7.99568 2.17107 7.95663 2.29668C7.91759 2.42228 7.85415 2.53895 7.76995 2.64L3.28995 8L7.60995 13.37C7.69301 13.4723 7.75505 13.59 7.79248 13.7163C7.82991 13.8427 7.842 13.9752 7.82806 14.1062C7.81413 14.2372 7.77443 14.3642 7.71125 14.4798C7.64808 14.5955 7.56268 14.6975 7.45995 14.78C7.35648 14.871 7.23532 14.9397 7.10405 14.9817C6.97279 15.0237 6.83427 15.0381 6.69717 15.024C6.56008 15.0099 6.42738 14.9676 6.3074 14.8998C6.18741 14.832 6.08274 14.7402 5.99995 14.63L1.16995 8.63C1.02287 8.45107 0.942461 8.22662 0.942461 7.995C0.942461 7.76337 1.02287 7.53893 1.16995 7.36L6.16995 1.36C6.27027 1.23898 6.3977 1.14332 6.54191 1.08077C6.68612 1.01822 6.84304 0.990547 6.99995 0.999998Z" fill="#EFF3F5"/>
</svg>
