<svg width="64" height="64" viewBox="0 0 64 64" fill="none" xmlns="http://www.w3.org/2000/svg">
<path d="M64 55.1111C64 60.0213 60.0213 64 55.1111 64H8.88889C3.98044 64 0 60.0213 0 55.1111V8.88889C0 3.97867 3.98044 0 8.88889 0H55.1111C60.0213 0 64 3.97867 64 8.88889V55.1111Z" fill="#F44336"/>
<path d="M54.2202 34.6631C53.7296 32.9155 52.2842 31.5377 50.4478 31.0702C47.1216 30.2222 31.9998 30.2222 31.9998 30.2222C31.9998 30.2222 16.878 30.2222 13.5518 31.0719C11.7171 31.5395 10.27 32.9155 9.77934 34.6648C8.88867 37.8328 8.88867 44.4444 8.88867 44.4444C8.88867 44.4444 8.88867 51.0559 9.77934 54.2257C10.27 55.9733 11.7153 57.3511 13.5518 57.8186C16.878 58.6666 31.9998 58.6666 31.9998 58.6666C31.9998 58.6666 47.1198 58.6666 50.4478 57.8168C52.2824 57.3493 53.7296 55.9733 54.2202 54.2239C55.1109 51.0559 55.1109 44.4444 55.1109 44.4444C55.1109 44.4444 55.1109 37.8328 54.2202 34.6631Z" fill="white"/>
<path d="M18.37 55.1112H15.4083V36.7201H12.4447V33.7778H21.3336V36.7201H18.37V55.1112ZM30.2225 55.1112H27.5558L27.2589 53.0987C26.0891 54.3627 24.6971 55.1112 23.6145 55.1112C22.6669 55.1112 22.0003 54.7005 21.6731 53.9503C21.4811 53.4809 21.3336 52.7769 21.3336 51.7192V38.2223H24.2971V52.0125C24.3718 52.4392 24.6829 52.5992 25.0669 52.5992C25.6589 52.5992 26.6083 51.9538 27.2589 51.1005V38.2223H30.2225V55.1112ZM51.5558 47.4009V42.5992C51.5558 41.2178 51.2145 40.2205 50.6082 39.5734C49.794 38.6916 48.6225 38.2223 47.1558 38.2223C45.6589 38.2223 44.5034 38.6916 43.6589 39.5734C43.0225 40.2187 42.6669 41.2765 42.6669 42.6578V50.8232C42.6669 52.1885 43.0669 53.1574 43.6891 53.7903C44.5336 54.6703 45.6891 55.1112 47.2305 55.1112C48.7558 55.1112 49.9558 54.6561 50.7558 53.7156C51.1114 53.3049 51.3478 52.8338 51.4527 52.3201C51.4669 52.0854 51.5558 51.4543 51.5558 50.7058H48.5923V51.8809C48.5923 52.5565 47.9256 53.1147 47.1114 53.1147C46.2971 53.1147 45.6305 52.5565 45.6305 51.8809V47.4009H51.5558ZM45.6305 41.5858C45.6305 40.8961 46.2971 40.3521 47.1114 40.3521C47.9256 40.3521 48.5923 40.8961 48.5923 41.5858V45.3601H45.6287V41.5858H45.6305ZM40.5034 39.9858C40.1336 38.8374 39.2287 38.2063 38.1034 38.1903C36.6669 38.1761 36.0731 38.9263 34.962 40.2205V33.7778H32.0003V55.1112H34.6669L34.9638 53.2729C35.8971 54.4196 37.1114 55.1112 38.1034 55.1112C39.2287 55.1112 40.1923 54.5227 40.562 53.3743C40.7398 52.7556 40.8731 52.1832 40.8874 50.8872V43.1645C40.8891 41.7085 40.6971 40.6045 40.5034 39.9858ZM37.9256 50.5067C37.9256 52.0516 37.57 52.5814 36.77 52.5814C36.3114 52.5814 35.4367 52.2721 34.962 51.8009V41.6925C35.4367 41.2214 36.3096 40.7663 36.77 40.7663C37.57 40.7663 37.9256 41.2516 37.9256 42.7965V50.5067Z" fill="#F44336"/>
<path d="M16 5.33325L19.2622 5.33503L21.3724 15.4897H21.5769L23.5822 5.33681L26.8818 5.33503L23.1111 19.3653V26.6666H19.8702L19.8649 19.7599L16 5.33325ZM26.9138 14.3679C26.9138 13.1733 27.3031 12.2186 28.0818 11.5128C28.8587 10.8035 29.9022 10.4461 31.2178 10.4444C32.4178 10.4444 33.3956 10.8159 34.16 11.5644C34.9227 12.3075 35.3067 13.271 35.3067 14.4479L35.312 22.4212C35.312 23.7404 34.9404 24.7786 34.192 25.5359C33.4436 26.2897 32.416 26.6666 31.0987 26.6666C29.8293 26.6666 28.8213 26.2737 28.0551 25.5004C27.2942 24.727 26.9173 23.6817 26.9156 22.3715L26.9102 14.3661L26.9138 14.3679ZM29.8933 22.6595C29.8933 23.079 29.9947 23.4115 30.2098 23.6426C30.4142 23.8701 30.7058 23.9857 31.0898 23.9857C31.4827 23.9857 31.7902 23.8684 32.0213 23.6284C32.2507 23.399 32.3698 23.0701 32.3698 22.6559L32.3644 14.2453C32.3644 13.911 32.2418 13.6373 32.0071 13.4293C31.7742 13.223 31.4649 13.1181 31.0844 13.1181C30.7307 13.1181 30.4427 13.2248 30.2204 13.431C30 13.639 29.8898 13.9128 29.8898 14.247L29.8933 22.6595ZM46.2222 10.6666V26.6666H43.6889L43.2853 24.711C42.7431 25.3475 42.1796 25.831 41.5911 26.1599C41.008 26.4906 40.4391 26.6666 39.888 26.6666C39.2053 26.6666 38.6951 26.4319 38.3484 25.9661C38.0018 25.5057 37.8311 24.8106 37.8311 23.879L37.824 10.6666H40.7627L40.7698 22.7999C40.7698 23.1626 40.8338 23.431 40.9582 23.5981C41.0756 23.7581 41.2836 23.847 41.5538 23.847C41.7742 23.847 42.048 23.7368 42.3716 23.5164C42.7058 23.2995 43.008 23.0168 43.2818 22.679L43.2782 10.6666H46.2222Z" fill="white"/>
</svg>
