<svg width="64" height="64" viewBox="0 0 64 64" fill="none" xmlns="http://www.w3.org/2000/svg">
<path d="M50.087 64H13.913C6.26087 64 0 57.7391 0 50.087V13.913C0 6.26087 6.26087 0 13.913 0H50.087C57.7391 0 64 6.26087 64 13.913V50.087C64 57.7391 57.7391 64 50.087 64Z" fill="#1976D2"/>
<path d="M55.5273 20.1146C55.618 19.8205 55.6613 19.5478 55.6495 19.3043C55.62 18.5992 55.1292 18.0869 53.9742 18.0869H48.8141C47.5113 18.0869 46.9102 18.866 46.5593 19.6471C46.5593 19.6471 43.3427 26.1899 39.6352 30.5043C38.4329 31.7529 37.8219 31.7217 37.1715 31.7217C36.8226 31.7217 35.9416 31.3049 35.9416 30.1615V20.062C35.9416 18.7102 35.6006 18.0869 34.4988 18.0869H25.3357C24.5335 18.0869 24.1157 18.7102 24.1157 19.3355C24.1157 20.6347 25.8856 20.9463 26.0867 24.5868V31.6438C26.0867 33.3579 25.7851 33.6695 25.1347 33.6695C23.3805 33.6695 19.9273 27.826 17.6154 20.1672C17.1147 18.6596 16.6141 18.0869 15.3113 18.0869H10.102C8.59809 18.0869 8.34778 18.8154 8.34778 19.5945C8.34778 20.9989 9.53037 28.5915 15.9854 37.3217C20.6665 43.6521 26.8337 47.3043 32.2933 47.3043C35.6006 47.3043 35.9396 46.4726 35.9396 45.1734V39.3844C35.9416 37.8242 36.3023 37.5652 37.3548 37.5652C38.1058 37.5652 39.6372 38.0521 42.5937 41.4608C46.0035 45.3915 46.6224 47.3043 48.5776 47.3043H53.7377C54.936 47.3043 55.6239 46.8076 55.6515 45.8434C55.6574 45.598 55.6219 45.3234 55.5411 45.0176C55.1587 43.8956 53.4046 41.1531 51.2168 38.5391C50.0046 37.0919 48.8082 35.6583 48.2583 34.8791C47.8897 34.3707 47.7498 34.0123 47.7675 33.6695C47.7853 33.3092 47.9745 32.9664 48.2583 32.4872C48.2071 32.4872 54.8769 23.2331 55.5273 20.1146Z" fill="white"/>
</svg>
