<svg width="32" height="32" viewBox="0 0 32 32" fill="none" xmlns="http://www.w3.org/2000/svg">
<path d="M5.93745 0C4.36463 0.00612895 2.85797 0.633649 1.74581 1.74581C0.633649 2.85797 0.00612895 4.36463 0 5.93745V26.0625C0.00612895 27.6354 0.633649 29.142 1.74581 30.2542C2.85797 31.3664 4.36463 31.9939 5.93745 32H26.0625C27.6354 31.9939 29.142 31.3664 30.2542 30.2542C31.3664 29.142 31.9939 27.6354 32 26.0625V5.93745C31.9939 4.36463 31.3664 2.85797 30.2542 1.74581C29.142 0.633649 27.6354 0.00612895 26.0625 0H5.93745ZM5.93745 2.90909H26.0625C27.7498 2.90909 29.0909 4.25018 29.0909 5.93745V26.0625C29.0909 27.7498 27.7498 29.0909 26.0625 29.0909H5.93745C5.53906 29.0934 5.14414 29.0168 4.77559 28.8655C4.40703 28.7142 4.07219 28.4912 3.79048 28.2095C3.50877 27.9278 3.2858 27.593 3.1345 27.2244C2.9832 26.8559 2.90658 26.4609 2.90909 26.0625V5.93745C2.90909 4.25018 4.25018 2.90909 5.93745 2.90909ZM15.5913 10.5164C14.5222 10.5062 13.6131 10.5164 13.1025 10.7665C12.7607 10.9324 12.5004 11.3062 12.6589 11.3236C12.8582 11.3527 13.3062 11.4487 13.5462 11.7731C13.8516 12.1876 13.8415 13.1258 13.8415 13.1258C13.8415 13.1258 14.0116 15.7047 13.4255 16.0291C13.0225 16.2502 12.4713 15.8007 11.2785 13.7498C10.6705 12.6938 10.2109 11.5287 10.2109 11.5287C10.2109 11.5287 10.1236 11.312 9.96655 11.1985C9.77309 11.0575 9.50546 11.0109 9.50546 11.0109L6.65891 11.0284C6.65891 11.0284 6.23273 11.0458 6.08 11.2276C5.93746 11.3978 6.06836 11.7324 6.06836 11.7324C6.06836 11.7324 8.29527 16.9425 10.8175 19.568C13.1302 21.9782 15.7556 21.8182 15.7556 21.8182H16.9484C16.9484 21.8182 17.3062 21.7789 17.488 21.5855C17.6596 21.4036 17.6538 21.0618 17.6538 21.0618C17.6538 21.0618 17.6305 19.4662 18.3695 19.2276C19.1025 18.9993 20.0335 20.7724 21.0284 21.4545C21.7847 21.9709 22.3578 21.8575 22.3578 21.8575L25.0182 21.8182C25.0182 21.8182 26.4044 21.7324 25.7455 20.6356C25.6945 20.5513 25.3644 19.8298 23.7745 18.352C22.1033 16.8073 22.3258 17.0575 24.336 14.3811C25.5578 12.7505 26.0465 11.7556 25.8924 11.3236C25.7469 10.9207 24.848 11.0284 24.848 11.0284L21.8531 11.0458C21.8531 11.0458 21.632 11.0167 21.4676 11.1142C21.3546 11.1981 21.2646 11.3092 21.2058 11.4371C21.2058 11.4371 20.7287 12.6982 20.0975 13.7731C18.768 16.0335 18.2284 16.1585 18.0131 16.0175C17.5069 15.6873 17.632 14.6982 17.632 14C17.632 11.8007 17.9665 10.8916 16.9847 10.6545C16.6604 10.5745 16.4218 10.5236 15.5927 10.5164H15.5913Z" fill="#EFF3F5"/>
</svg>
