<svg width="24" height="16" viewBox="0 0 24 16" fill="none" xmlns="http://www.w3.org/2000/svg">
<path fill-rule="evenodd" clip-rule="evenodd" d="M23.435 1.68514C23.613 1.1107 23.435 0.693107 22.6475 0.693107H20.029C19.3685 0.693107 19.0635 1.05876 18.8855 1.44987C18.8855 1.44987 17.5385 4.79061 15.6575 6.95649C15.0475 7.58288 14.768 7.79167 14.4375 7.79167C14.2595 7.79167 14.0305 7.58288 14.0305 7.00894V1.65815C14.0305 0.97982 13.8275 0.666626 13.268 0.666626H9.15001C8.74301 0.666626 8.48901 0.979821 8.48901 1.29302C8.48901 1.94538 9.42951 2.10223 9.53101 3.92894V7.89811C9.53101 8.75926 9.38101 8.91663 9.04801 8.91663C8.15851 8.91663 5.99801 5.54991 4.70201 1.71366C4.45001 0.953848 4.19401 0.666626 3.533 0.666626H0.889501C0.127 0.666626 0 1.03176 0 1.42339C0 2.1282 0.889501 5.67723 4.14301 10.3746C6.30351 13.583 9.37901 15.3073 12.1495 15.3073C13.8275 15.3073 14.0305 14.9157 14.0305 14.2633V11.8362C14.0305 11.0535 14.183 10.9231 14.717 10.9231C15.098 10.9231 15.7845 11.1314 17.335 12.6714C19.114 14.4981 19.419 15.3333 20.4105 15.3333H23.0285C23.791 15.3333 24.147 14.9417 23.9435 14.1849C23.715 13.4282 22.8505 12.3322 21.732 11.0275C21.122 10.2972 20.207 9.48802 19.9275 9.09639C19.5465 8.5744 19.648 8.36561 19.9275 7.89607C19.902 7.89607 23.105 3.25061 23.435 1.68311" fill="#EFF3F5"/>
</svg>
