<svg width="24" height="17" viewBox="0 0 24 17" fill="none" xmlns="http://www.w3.org/2000/svg">
<path d="M23.4937 2.52073C23.3571 2.0331 23.0897 1.58848 22.7181 1.2314C22.3466 0.874314 21.884 0.61728 21.3766 0.486024C19.5082 1.47301e-07 12 0 12 0C12 0 4.49183 1.47301e-07 2.62336 0.486024C2.11599 0.61728 1.6534 0.874314 1.28186 1.2314C0.910331 1.58848 0.642899 2.0331 0.506332 2.52073C0.157447 4.35219 -0.0118575 6.21107 0.00064491 8.07294C-0.0118575 9.9348 0.157447 11.7937 0.506332 13.6251C0.642899 14.1128 0.910331 14.5574 1.28186 14.9145C1.6534 15.2716 2.11599 15.5286 2.62336 15.6599C4.49183 16.1459 12 16.1459 12 16.1459C12 16.1459 19.5082 16.1459 21.3766 15.6599C21.884 15.5286 22.3466 15.2716 22.7181 14.9145C23.0897 14.5574 23.3571 14.1128 23.4937 13.6251C23.8426 11.7937 24.0119 9.9348 23.9994 8.07294C24.0119 6.21107 23.8426 4.35219 23.4937 2.52073ZM9.60013 11.5328V4.61311L15.8312 8.07294L9.60013 11.5328Z" fill="#EFF3F5"/>
</svg>
