<svg width="64" height="64" viewBox="0 0 64 64" fill="none" xmlns="http://www.w3.org/2000/svg">
<path d="M50.087 64H13.913C6.26087 64 0 57.7391 0 50.087V13.913C0 6.26087 6.26087 0 13.913 0H50.087C57.7391 0 64 6.26087 64 13.913V50.087C64 57.7391 57.7391 64 50.087 64Z" fill="url(#paint0_radial_0_61)"/>
<path d="M32 12.5218C38.4 12.5218 39.0956 12.5218 41.6 12.6609C43.9652 12.8001 45.2173 13.2175 46.0521 13.4957C47.1652 13.9131 48 14.4696 48.8347 15.3044C49.6695 16.1392 50.226 16.974 50.6434 18.087C50.9217 18.9218 51.3391 20.174 51.4782 22.5392C51.4782 24.9044 51.4782 25.6001 51.4782 32.0001C51.4782 38.4001 51.4782 39.0957 51.3391 41.6001C51.2 43.9653 50.7826 45.2175 50.5043 46.0522C50.0869 47.1653 49.5304 48.0001 48.6956 48.8349C47.8608 49.6696 47.026 50.2262 45.913 50.6436C45.0782 50.9218 43.826 51.3392 41.4608 51.4783C39.0956 51.4783 38.4 51.4783 32 51.4783C25.6 51.4783 24.9043 51.4783 22.4 51.3392C20.0347 51.2001 18.7826 50.7827 17.9478 50.5044C16.8347 50.087 16 49.5305 15.1652 48.6957C14.3304 47.8609 13.7739 47.0262 13.3565 45.9131C13.0782 45.0783 12.6608 43.8262 12.5217 41.4609C12.5217 39.0957 12.5217 38.4001 12.5217 32.0001C12.5217 25.6001 12.5217 24.9044 12.6608 22.4001C12.8 20.0349 13.2173 18.7827 13.4956 17.9479C13.913 16.8349 14.4695 16.0001 15.3043 15.1653C16.1391 14.3305 16.9739 13.774 18.0869 13.3566C18.9217 13.0783 20.1739 12.6609 22.5391 12.5218C24.9043 12.5218 25.6 12.5218 32 12.5218ZM32 8.3479C25.6 8.3479 24.7652 8.3479 22.2608 8.48703C19.7565 8.62616 18.0869 9.04355 16.5565 9.60007C15.026 10.1566 13.6347 10.9914 12.3826 12.3827C11.1304 13.774 10.2956 15.0262 9.59995 16.5566C9.04343 18.087 8.62604 19.7566 8.48691 22.2609C8.34778 24.7653 8.34778 25.6001 8.34778 32.0001C8.34778 38.4001 8.34778 39.2349 8.48691 41.7392C8.62604 44.2436 9.04343 45.9131 9.59995 47.4436C10.1565 48.974 10.9913 50.3653 12.3826 51.6175C13.6347 52.8696 15.026 53.7044 16.5565 54.4001C18.0869 54.9566 19.7565 55.374 22.2608 55.5131C24.7652 55.6523 25.6 55.6522 32 55.6522C38.4 55.6522 39.2347 55.6523 41.7391 55.5131C44.2434 55.374 45.913 54.9566 47.4434 54.4001C48.9739 53.8436 50.3652 53.0088 51.6173 51.6175C52.8695 50.3653 53.7043 48.974 54.4 47.4436C54.9565 45.9131 55.3739 44.2436 55.513 41.7392C55.6521 39.2349 55.6521 38.4001 55.6521 32.0001C55.6521 25.6001 55.6521 24.7653 55.513 22.2609C55.3739 19.7566 54.9565 18.087 54.4 16.5566C53.8434 15.0262 53.0086 13.6349 51.6173 12.3827C50.226 11.1305 48.9739 10.2957 47.4434 9.60007C45.913 9.04355 44.2434 8.62616 41.7391 8.48703C39.2347 8.3479 38.4 8.3479 32 8.3479Z" fill="white"/>
<path d="M31.9999 19.4783C25.0434 19.4783 19.4781 25.0435 19.4781 32C19.4781 38.9565 25.0434 44.5218 31.9999 44.5218C38.9564 44.5218 44.5216 38.9565 44.5216 32C44.5216 25.0435 38.9564 19.4783 31.9999 19.4783ZM31.9999 40.3478C27.4086 40.3478 23.6521 36.5913 23.6521 32C23.6521 27.4087 27.4086 23.6522 31.9999 23.6522C36.5912 23.6522 40.3477 27.4087 40.3477 32C40.3477 36.5913 36.5912 40.3478 31.9999 40.3478Z" fill="white"/>
<path d="M44.5217 22.2608C46.0585 22.2608 47.3044 21.015 47.3044 19.4782C47.3044 17.9414 46.0585 16.6956 44.5217 16.6956C42.985 16.6956 41.7391 17.9414 41.7391 19.4782C41.7391 21.015 42.985 22.2608 44.5217 22.2608Z" fill="white"/>
<defs>
<radialGradient id="paint0_radial_0_61" cx="0" cy="0" r="1" gradientUnits="userSpaceOnUse" gradientTransform="translate(13.2298 76.933) rotate(-49.945) scale(96.8981 64.0094)">
<stop offset="0.073" stop-color="#EACC7B"/>
<stop offset="0.184" stop-color="#ECAA59"/>
<stop offset="0.307" stop-color="#EF802E"/>
<stop offset="0.358" stop-color="#EF6D3A"/>
<stop offset="0.46" stop-color="#F04B50"/>
<stop offset="0.516" stop-color="#F03E58"/>
<stop offset="0.689" stop-color="#DB359E"/>
<stop offset="0.724" stop-color="#CE37A4"/>
<stop offset="0.789" stop-color="#AC3CB4"/>
<stop offset="0.877" stop-color="#7544CF"/>
<stop offset="0.98" stop-color="#2B4FF2"/>
</radialGradient>
</defs>
</svg>
